STARTFONT 2.1
COMMENT
COMMENT Converted from TrueType font "albas.ttf" by "ttf2bdf 2.6".
COMMENT
FONT -FreeType-Alba Super-Medium-R-Normal--17-120-100-100-P-109-ISO10646-1
SIZE 12 100 100
FONTBOUNDINGBOX 24 33 -2 -12
STARTPROPERTIES 20
FOUNDRY "FreeType"
FAMILY_NAME "Alba Super"
WEIGHT_NAME "Medium"
SLANT "R"
SETWIDTH_NAME "Normal"
ADD_STYLE_NAME ""
PIXEL_SIZE 17
POINT_SIZE 120
RESOLUTION_X 100
RESOLUTION_Y 100
SPACING "P"
AVERAGE_WIDTH 109
CHARSET_REGISTRY "ISO10646"
CHARSET_ENCODING "1"
FONT_ASCENT 16
FONT_DESCENT 8
COPYRIGHT "Alba ©2001, Font"a"licious Fonts."
_TTF_FONTFILE "albas.ttf"
_TTF_PSNAME "AlbaSuper"
_XFREE86_GLYPH_RANGES "32_126 161_165 167_172 174_177 180_184 186_187 191_214 216_252 254_255 305 321_322 338_339 352_353 376 381_382 402 710_711 713 728_733 916 937 956 960 8208 8211_8212 8216_8218 8220_8222 8224_8226 8230 8240 8249_8250 8260 8482 8486 8706 8710 8719 8721 8729_8730 8734 8747 8776 8800 8804_8805 8946 9674 61441_61442"
ENDPROPERTIES
CHARS 239
STARTCHAR 0020
ENCODING 32
SWIDTH 300 0
DWIDTH 5 0
BBX 1 1 0 0
BITMAP
00
ENDCHAR
STARTCHAR 0021
ENCODING 33
SWIDTH 240 0
DWIDTH 4 0
BBX 5 16 0 -3
BITMAP
70
88
88
88
88
88
88
88
88
F8
98
88
88
98
F8
70
ENDCHAR
STARTCHAR 0022
ENCODING 34
SWIDTH 480 0
DWIDTH 8 0
BBX 8 9 0 4
BITMAP
7E
89
89
89
89
89
89
FF
7E
ENDCHAR
STARTCHAR 0023
ENCODING 35
SWIDTH 540 0
DWIDTH 9 0
BBX 10 12 0 1
BITMAP
3F00
4480
8040
8040
8040
C4C0
8040
8040
C4C0
C4C0
7F80
3F00
ENDCHAR
STARTCHAR 0024
ENCODING 36
SWIDTH 480 0
DWIDTH 8 0
BBX 9 16 0 -3
BITMAP
1C00
2400
2700
3880
3080
2180
2380
2300
6200
C200
8400
8C00
F400
6400
3C00
1800
ENDCHAR
STARTCHAR 0025
ENCODING 37
SWIDTH 720 0
DWIDTH 12 0
BBX 13 19 0 -5
BITMAP
01C0
7920
CE60
A660
A660
84E0
CCC0
FCC0
79F0
0998
1928
1328
1308
2398
27F8
26F0
2600
3C00
1C00
ENDCHAR
STARTCHAR 0026
ENCODING 38
SWIDTH 840 0
DWIDTH 14 0
BBX 15 9 0 1
BITMAP
000E
3B9A
44EA
848A
B58A
958A
D5C6
7FFE
3FFC
ENDCHAR
STARTCHAR 0027
ENCODING 39
SWIDTH 240 0
DWIDTH 4 0
BBX 5 9 0 4
BITMAP
70
88
88
88
88
88
88
F8
70
ENDCHAR
STARTCHAR 0028
ENCODING 40
SWIDTH 480 0
DWIDTH 8 0
BBX 9 18 0 -4
BITMAP
0F00
1880
2080
4780
CF00
9800
9000
9000
9000
9000
9000
8800
C700
C080
6080
3880
1F80
0F00
ENDCHAR
STARTCHAR 0029
ENCODING 41
SWIDTH 480 0
DWIDTH 8 0
BBX 9 18 0 -4
BITMAP
7800
8400
8200
F100
7980
0C80
0480
0480
0480
0480
0480
0880
7180
8180
8300
8600
FC00
7800
ENDCHAR
STARTCHAR 002A
ENCODING 42
SWIDTH 420 0
DWIDTH 7 0
BBX 8 9 0 -1
BITMAP
18
36
E3
81
C3
C3
42
7E
7E
ENDCHAR
STARTCHAR 002B
ENCODING 43
SWIDTH 480 0
DWIDTH 8 0
BBX 8 11 0 -2
BITMAP
18
24
66
81
81
81
E7
E7
66
3C
18
ENDCHAR
STARTCHAR 002C
ENCODING 44
SWIDTH 240 0
DWIDTH 4 0
BBX 5 9 0 -5
BITMAP
70
88
88
88
88
88
88
F8
70
ENDCHAR
STARTCHAR 002D
ENCODING 45
SWIDTH 240 0
DWIDTH 4 0
BBX 5 7 0 1
BITMAP
70
D8
88
88
D8
F8
70
ENDCHAR
STARTCHAR 002E
ENCODING 46
SWIDTH 240 0
DWIDTH 4 0
BBX 5 7 0 -3
BITMAP
70
D8
88
88
88
F8
70
ENDCHAR
STARTCHAR 002F
ENCODING 47
SWIDTH 480 0
DWIDTH 8 0
BBX 9 19 0 -5
BITMAP
0700
0980
0980
0980
1300
1300
3300
2600
2600
4600
4C00
4C00
9C00
9800
9800
B800
B000
F000
E000
ENDCHAR
STARTCHAR 0030
ENCODING 48
SWIDTH 780 0
DWIDTH 13 0
BBX 14 16 0 -3
BITMAP
0FC0
1860
2010
4788
CFC8
98C4
9064
9024
9044
88C4
C78C
C008
6018
3870
1FE0
0FC0
ENDCHAR
STARTCHAR 0031
ENCODING 49
SWIDTH 240 0
DWIDTH 4 0
BBX 4 16 0 -3
BITMAP
60
90
90
90
90
90
90
90
90
90
90
90
90
90
F0
60
ENDCHAR
STARTCHAR 0032
ENCODING 50
SWIDTH 600 0
DWIDTH 10 0
BBX 11 16 0 -3
BITMAP
1F00
6180
4040
8660
8F20
9320
D620
F660
FCE0
31C0
63C0
C020
8020
8020
FFE0
7FC0
ENDCHAR
STARTCHAR 0033
ENCODING 51
SWIDTH 480 0
DWIDTH 8 0
BBX 9 16 0 -3
BITMAP
3E00
6300
C100
8080
9C80
9C80
E080
6080
3880
3C80
7C80
8080
8180
8300
FF00
7E00
ENDCHAR
STARTCHAR 0034
ENCODING 52
SWIDTH 480 0
DWIDTH 8 0
BBX 9 16 0 -3
BITMAP
6300
9480
9480
9480
9480
9480
9C80
8080
C080
E080
7C80
1C80
0480
0480
0780
0300
ENDCHAR
STARTCHAR 0035
ENCODING 53
SWIDTH 480 0
DWIDTH 8 0
BBX 9 16 0 -3
BITMAP
7F00
8080
8080
9F80
8380
8180
8080
8080
FC80
7C80
7C80
8180
8180
8300
FE00
7C00
ENDCHAR
STARTCHAR 0036
ENCODING 54
SWIDTH 600 0
DWIDTH 10 0
BBX 11 16 0 -3
BITMAP
1F00
2180
4040
8C40
93C0
8040
8040
8C20
9E20
9E20
8C20
8060
C060
60C0
3F80
1F00
ENDCHAR
STARTCHAR 0037
ENCODING 55
SWIDTH 540 0
DWIDTH 9 0
BBX 10 16 0 -3
BITMAP
7F80
8040
8040
F840
78C0
09C0
1980
1180
1300
1300
2300
2600
2600
2600
3C00
1C00
ENDCHAR
STARTCHAR 0038
ENCODING 56
SWIDTH 540 0
DWIDTH 9 0
BBX 10 16 0 -3
BITMAP
3E00
6300
C180
8C80
8C80
8080
C080
C080
8040
8C40
8C40
8040
C0C0
6180
7F80
1E00
ENDCHAR
STARTCHAR 0039
ENCODING 57
SWIDTH 600 0
DWIDTH 10 0
BBX 10 16 0 -3
BITMAP
1E00
6100
4080
8C40
9E40
9E40
8C40
8040
C040
6040
5C40
4040
40C0
6180
3F80
1E00
ENDCHAR
STARTCHAR 003A
ENCODING 58
SWIDTH 240 0
DWIDTH 4 0
BBX 5 11 0 -3
BITMAP
70
88
88
88
F8
58
88
88
88
F8
70
ENDCHAR
STARTCHAR 003B
ENCODING 59
SWIDTH 240 0
DWIDTH 4 0
BBX 5 13 0 -5
BITMAP
70
88
88
88
F8
88
88
88
88
88
88
F8
70
ENDCHAR
STARTCHAR 003C
ENCODING 60
SWIDTH 300 0
DWIDTH 5 0
BBX 6 9 0 -1
BITMAP
38
64
C4
8C
8C
C4
E4
7C
38
ENDCHAR
STARTCHAR 003D
ENCODING 61
SWIDTH 480 0
DWIDTH 8 0
BBX 8 9 0 -1
BITMAP
7E
81
81
FF
81
81
81
FF
7E
ENDCHAR
STARTCHAR 003E
ENCODING 62
SWIDTH 300 0
DWIDTH 5 0
BBX 6 9 0 -1
BITMAP
70
98
8C
C4
C4
8C
9C
F8
70
ENDCHAR
STARTCHAR 003F
ENCODING 63
SWIDTH 600 0
DWIDTH 10 0
BBX 11 16 0 -3
BITMAP
1F00
2080
4040
8C20
9E20
9A20
FC20
E060
E0E0
3FC0
27C0
2380
2200
2600
3E00
1C00
ENDCHAR
STARTCHAR 0040
ENCODING 64
SWIDTH 780 0
DWIDTH 13 0
BBX 14 16 0 -3
BITMAP
0FC0
1860
2010
4788
C84C
9024
93A4
93A4
90A4
8884
C78C
C00C
6018
3870
1FE0
0FC0
ENDCHAR
STARTCHAR 0041
ENCODING 65
SWIDTH 600 0
DWIDTH 10 0
BBX 13 19 0 -6
BITMAP
1F00
2080
4040
8C20
9E20
9A20
9E20
9C20
9020
9020
9220
9E20
9E20
9220
F230
6308
0388
01F8
00F0
ENDCHAR
STARTCHAR 0042
ENCODING 66
SWIDTH 480 0
DWIDTH 8 0
BBX 9 16 0 -3
BITMAP
3E00
6300
C180
8080
9C80
9C80
9080
A080
9080
9C80
9C80
9880
A180
A380
FF00
7E00
ENDCHAR
STARTCHAR 0043
ENCODING 67
SWIDTH 480 0
DWIDTH 8 0
BBX 9 16 0 -3
BITMAP
0F00
1880
2080
4380
CF80
9F00
9800
9000
9000
9800
CF00
C380
6080
3880
1F80
0F00
ENDCHAR
STARTCHAR 0044
ENCODING 68
SWIDTH 660 0
DWIDTH 11 0
BBX 12 16 0 -3
BITMAP
7F00
8180
8040
9C20
9E30
9310
9110
9110
9110
9210
9C30
9030
9060
91C0
FF80
7F00
ENDCHAR
STARTCHAR 0045
ENCODING 69
SWIDTH 480 0
DWIDTH 8 0
BBX 9 16 0 -3
BITMAP
0F00
1880
2080
4780
CF80
8080
8080
8080
8080
8F80
C780
C080
6080
3880
1F80
0F00
ENDCHAR
STARTCHAR 0046
ENCODING 70
SWIDTH 480 0
DWIDTH 8 0
BBX 8 16 0 -3
BITMAP
3E
61
C1
9F
9F
82
81
81
81
9F
9E
90
90
90
F0
60
ENDCHAR
STARTCHAR 0047
ENCODING 71
SWIDTH 780 0
DWIDTH 13 0
BBX 14 16 0 -3
BITMAP
0FC0
1830
2018
4008
C788
8FF8
9A04
9204
93E4
8BC4
C78C
C00C
6018
3870
1FE0
0FC0
ENDCHAR
STARTCHAR 0048
ENCODING 72
SWIDTH 600 0
DWIDTH 10 0
BBX 14 19 0 -6
BITMAP
60C0
9120
9120
9120
9120
9F20
8020
8020
9F20
9F20
9120
9120
9120
9120
F138
6184
00C4
00FC
0038
ENDCHAR
STARTCHAR 0049
ENCODING 73
SWIDTH 240 0
DWIDTH 4 0
BBX 4 16 0 -3
BITMAP
60
90
90
90
90
90
90
90
90
90
90
90
90
90
F0
60
ENDCHAR
STARTCHAR 004A
ENCODING 74
SWIDTH 540 0
DWIDTH 9 0
BBX 10 16 0 -3
BITMAP
0380
0440
0440
0440
0440
0440
0440
6440
9440
9440
9C40
8040
C0C0
6180
7F80
1E00
ENDCHAR
STARTCHAR 004B
ENCODING 75
SWIDTH 540 0
DWIDTH 9 0
BBX 12 19 0 -6
BITMAP
6000
9000
9700
9880
9880
9880
8180
80C0
9C40
9C40
9440
9440
9440
9440
F470
6610
0310
03F0
00E0
ENDCHAR
STARTCHAR 004C
ENCODING 76
SWIDTH 420 0
DWIDTH 7 0
BBX 8 16 0 -3
BITMAP
60
90
90
90
90
90
90
90
90
90
9E
81
C1
61
7F
1E
ENDCHAR
STARTCHAR 004D
ENCODING 77
SWIDTH 780 0
DWIDTH 13 0
BBX 17 19 0 -6
BITMAP
1CE000
631800
400800
9CE400
9CE400
94A400
94A400
94A400
94A400
94A400
94A400
94A400
94A400
94A400
F7A700
633080
001900
001F80
000700
ENDCHAR
STARTCHAR 004E
ENCODING 78
SWIDTH 480 0
DWIDTH 8 0
BBX 12 19 0 -6
BITMAP
3E00
6300
4100
9C80
9C80
9480
9480
9480
9480
9480
9480
9480
9480
9480
F4E0
6610
0310
03F0
00E0
ENDCHAR
STARTCHAR 004F
ENCODING 79
SWIDTH 780 0
DWIDTH 13 0
BBX 14 16 0 -3
BITMAP
0FC0
1860
2010
4788
CFC8
98C4
9064
9024
9044
88C4
C78C
C008
6018
3870
1FE0
0FC0
ENDCHAR
STARTCHAR 0050
ENCODING 80
SWIDTH 600 0
DWIDTH 10 0
BBX 11 16 0 -3
BITMAP
1E00
6100
4080
8C40
9E40
9A40
9E60
9C40
9840
90C0
9180
9F80
9600
9000
F000
7000
ENDCHAR
STARTCHAR 0051
ENCODING 81
SWIDTH 780 0
DWIDTH 13 0
BBX 14 20 0 -7
BITMAP
0FC0
1860
2010
4008
CFCC
8FC4
93E4
91E4
98E4
9CC4
CC8C
C40C
6418
3C70
1CE0
04C0
0480
0480
0780
0300
ENDCHAR
STARTCHAR 0052
ENCODING 82
SWIDTH 600 0
DWIDTH 10 0
BBX 11 16 0 -3
BITMAP
1F00
2080
4040
8C20
9E20
9A20
9E20
9C20
9060
90C0
91C0
90C0
9840
9C40
FFC0
7380
ENDCHAR
STARTCHAR 0053
ENCODING 83
SWIDTH 480 0
DWIDTH 8 0
BBX 9 16 0 -3
BITMAP
0F00
1880
3080
2180
2380
2300
2200
2200
2200
2200
6200
C200
8600
8E00
FC00
7800
ENDCHAR
STARTCHAR 0054
ENCODING 84
SWIDTH 540 0
DWIDTH 9 0
BBX 10 16 0 -3
BITMAP
7F80
8040
8040
F3C0
7380
1200
1200
1200
1200
1200
1200
1200
1200
1200
1E00
0C00
ENDCHAR
STARTCHAR 0055
ENCODING 85
SWIDTH 480 0
DWIDTH 8 0
BBX 9 16 0 -3
BITMAP
6300
9480
9480
9480
9480
9480
9480
9480
9480
9480
9C80
8080
C180
6300
7F00
3E00
ENDCHAR
STARTCHAR 0056
ENCODING 86
SWIDTH 600 0
DWIDTH 10 0
BBX 11 16 0 -3
BITMAP
E1C0
9240
9260
9A60
CC60
CCC0
CCC0
69C0
6180
6180
3380
3300
3300
1B00
1E00
0E00
ENDCHAR
STARTCHAR 0057
ENCODING 87
SWIDTH 780 0
DWIDTH 13 0
BBX 14 16 0 -3
BITMAP
6318
94A4
94A4
94A4
94A4
94A4
94A4
94A4
94A4
94A4
9CE4
8004
C00C
6318
7FF8
1CE0
ENDCHAR
STARTCHAR 0058
ENCODING 88
SWIDTH 480 0
DWIDTH 8 0
BBX 9 16 0 -3
BITMAP
6300
9480
9480
9480
9480
9C80
8080
8080
8080
9C80
9C80
9480
9480
9480
F780
6300
ENDCHAR
STARTCHAR 0059
ENCODING 89
SWIDTH 480 0
DWIDTH 8 0
BBX 9 16 0 -3
BITMAP
6300
9480
9480
9480
9480
9C80
8080
C080
A080
9C80
9C80
8080
C180
6300
7F00
3E00
ENDCHAR
STARTCHAR 005A
ENCODING 90
SWIDTH 540 0
DWIDTH 9 0
BBX 10 16 0 -3
BITMAP
3F80
4040
4040
7CC0
78C0
7180
1180
2300
2700
4600
CF80
8040
8040
8040
FFC0
FF80
ENDCHAR
STARTCHAR 005B
ENCODING 91
SWIDTH 420 0
DWIDTH 7 0
BBX 8 21 0 -6
BITMAP
1E
61
41
81
9F
9E
90
90
90
90
90
90
90
90
90
9E
81
C1
61
7F
1E
ENDCHAR
STARTCHAR 005C
ENCODING 92
SWIDTH 480 0
DWIDTH 8 0
BBX 9 19 0 -5
BITMAP
E000
9000
9000
8800
C800
C800
E400
6400
6400
7200
3200
3200
3900
1900
1880
0D00
0D80
0F00
0700
ENDCHAR
STARTCHAR 005D
ENCODING 93
SWIDTH 420 0
DWIDTH 7 0
BBX 8 21 0 -6
BITMAP
78
86
82
81
F1
71
11
11
11
11
11
11
11
11
11
71
81
83
86
FE
78
ENDCHAR
STARTCHAR 005E
ENCODING 94
SWIDTH 420 0
DWIDTH 7 0
BBX 8 8 0 5
BITMAP
18
24
42
81
81
99
FF
7E
ENDCHAR
STARTCHAR 005F
ENCODING 95
SWIDTH 600 0
DWIDTH 10 0
BBX 11 6 0 -3
BITMAP
7FC0
8020
8020
8020
FFE0
7FC0
ENDCHAR
STARTCHAR 0060
ENCODING 96
SWIDTH 300 0
DWIDTH 5 0
BBX 6 9 0 4
BITMAP
70
88
88
84
C4
C4
44
7C
38
ENDCHAR
STARTCHAR 0061
ENCODING 97
SWIDTH 600 0
DWIDTH 10 0
BBX 10 12 0 -3
BITMAP
1E00
6180
4080
8C40
9E40
9A40
9E40
8640
C240
6240
7FC0
1D80
ENDCHAR
STARTCHAR 0062
ENCODING 98
SWIDTH 600 0
DWIDTH 10 0
BBX 11 16 0 -3
BITMAP
6000
9000
9000
9000
9F00
9180
9040
9C20
9E20
9E20
8C20
8020
C060
60C0
3F80
1F00
ENDCHAR
STARTCHAR 0063
ENCODING 99
SWIDTH 420 0
DWIDTH 7 0
BBX 8 12 0 -3
BITMAP
1E
21
42
87
8E
88
86
81
C1
61
3F
1E
ENDCHAR
STARTCHAR 0064
ENCODING 100
SWIDTH 600 0
DWIDTH 10 0
BBX 11 16 0 -3
BITMAP
01C0
0220
0220
0220
1E20
6220
4220
8E20
9E20
9E20
8C20
8020
C060
60C0
3F80
1F00
ENDCHAR
STARTCHAR 0065
ENCODING 101
SWIDTH 540 0
DWIDTH 9 0
BBX 10 12 0 -3
BITMAP
1F00
2080
4040
8840
90C0
93C0
8F80
8080
C080
6080
3F80
1F00
ENDCHAR
STARTCHAR 0066
ENCODING 102
SWIDTH 480 0
DWIDTH 8 0
BBX 9 16 0 -3
BITMAP
1E00
6100
4080
9C80
9C80
9C80
9F80
8080
8080
8080
9F80
9F00
9000
9000
F000
6000
ENDCHAR
STARTCHAR 0067
ENCODING 103
SWIDTH 600 0
DWIDTH 10 0
BBX 11 21 0 -12
BITMAP
1F00
2080
4040
8C20
9E20
9A20
8E20
C220
E220
7E20
6020
4020
8040
8FA0
9E20
8E20
8060
C060
60C0
3F80
1F00
ENDCHAR
STARTCHAR 0068
ENCODING 104
SWIDTH 480 0
DWIDTH 8 0
BBX 12 19 0 -6
BITMAP
6000
9000
9000
9000
9C00
8300
8100
9C80
9C80
9480
9480
9480
9480
9480
F4E0
6610
0310
03F0
00E0
ENDCHAR
STARTCHAR 0069
ENCODING 105
SWIDTH 240 0
DWIDTH 4 0
BBX 5 16 0 -3
BITMAP
70
98
88
98
F8
88
88
88
88
88
88
88
88
98
F8
70
ENDCHAR
STARTCHAR 006A
ENCODING 106
SWIDTH 240 0
DWIDTH 4 0
BBX 7 19 -1 -6
BITMAP
1C
22
22
22
3E
12
12
12
12
12
12
12
12
12
72
86
8E
FC
78
ENDCHAR
STARTCHAR 006B
ENCODING 107
SWIDTH 480 0
DWIDTH 8 0
BBX 12 19 0 -6
BITMAP
6000
9000
9000
9000
9F00
9880
9880
8080
8180
8180
9C80
9C80
9C80
9480
F4E0
6610
0710
03F0
01E0
ENDCHAR
STARTCHAR 006C
ENCODING 108
SWIDTH 240 0
DWIDTH 4 0
BBX 4 16 0 -3
BITMAP
60
90
90
90
90
90
90
90
90
90
90
90
90
90
F0
60
ENDCHAR
STARTCHAR 006D
ENCODING 109
SWIDTH 780 0
DWIDTH 13 0
BBX 17 15 0 -6
BITMAP
3FE000
601800
C00800
9CE400
9CE400
94A400
94A400
94A400
94A400
94A400
F7A700
633080
001900
001F80
000700
ENDCHAR
STARTCHAR 006E
ENCODING 110
SWIDTH 480 0
DWIDTH 8 0
BBX 12 15 0 -6
BITMAP
3E00
6300
C180
9C80
9C80
9480
9480
9480
9480
9480
F4E0
6610
0310
03F0
00E0
ENDCHAR
STARTCHAR 006F
ENCODING 111
SWIDTH 600 0
DWIDTH 10 0
BBX 11 12 0 -3
BITMAP
1F00
2080
4040
8C20
9E20
9E20
8C20
8020
C060
60C0
3F80
1F00
ENDCHAR
STARTCHAR 0070
ENCODING 112
SWIDTH 600 0
DWIDTH 10 0
BBX 11 15 0 -6
BITMAP
1F00
2080
4040
8C20
9E20
9E20
9E20
9820
9060
90C0
9F80
9F00
9000
F000
6000
ENDCHAR
STARTCHAR 0071
ENCODING 113
SWIDTH 600 0
DWIDTH 10 0
BBX 11 15 0 -6
BITMAP
1F00
2080
4040
8C20
9E20
9A20
9E20
8620
C220
6220
3E20
1E20
0220
01E0
00C0
ENDCHAR
STARTCHAR 0072
ENCODING 114
SWIDTH 360 0
DWIDTH 6 0
BBX 7 12 0 -3
BITMAP
1C
62
C2
9E
9C
90
90
90
90
90
F0
60
ENDCHAR
STARTCHAR 0073
ENCODING 115
SWIDTH 480 0
DWIDTH 8 0
BBX 9 12 0 -3
BITMAP
0F00
1880
3080
2180
2380
2300
6200
C200
8400
8C00
F800
7000
ENDCHAR
STARTCHAR 0074
ENCODING 116
SWIDTH 480 0
DWIDTH 8 0
BBX 9 14 0 -3
BITMAP
7000
9000
9F00
8080
8080
9F80
9C80
9C80
8C80
8080
C180
E380
7F00
3E00
ENDCHAR
STARTCHAR 0075
ENCODING 117
SWIDTH 480 0
DWIDTH 8 0
BBX 9 12 0 -3
BITMAP
6300
9480
9480
9480
9480
9480
9C80
8080
C180
E380
7F00
3E00
ENDCHAR
STARTCHAR 0076
ENCODING 118
SWIDTH 480 0
DWIDTH 8 0
BBX 9 12 0 -3
BITMAP
E700
9C80
9980
C980
C180
E300
6300
6700
3600
3600
3C00
1C00
ENDCHAR
STARTCHAR 0077
ENCODING 119
SWIDTH 780 0
DWIDTH 13 0
BBX 14 12 0 -3
BITMAP
6318
94A4
94A4
94A4
94A4
94A4
9CE4
8004
C00C
E31C
7FF8
3CF0
ENDCHAR
STARTCHAR 0078
ENCODING 120
SWIDTH 480 0
DWIDTH 8 0
BBX 9 12 0 -3
BITMAP
7300
9480
9C80
8080
8080
8080
8080
9C80
9C80
9480
F780
6300
ENDCHAR
STARTCHAR 0079
ENCODING 121
SWIDTH 480 0
DWIDTH 8 0
BBX 9 15 0 -6
BITMAP
6300
9480
9480
9480
9480
9480
9C80
8080
C080
6080
7C80
2180
2380
3F00
1E00
ENDCHAR
STARTCHAR 007A
ENCODING 122
SWIDTH 540 0
DWIDTH 9 0
BBX 10 12 0 -3
BITMAP
3F80
4040
4080
70C0
7180
6380
4700
8080
8080
8080
FF80
FF00
ENDCHAR
STARTCHAR 007B
ENCODING 123
SWIDTH 360 0
DWIDTH 6 0
BBX 8 21 0 -6
BITMAP
1E
61
41
81
9F
9E
90
90
90
90
90
90
90
90
90
9E
81
C1
61
7F
1E
ENDCHAR
STARTCHAR 007C
ENCODING 124
SWIDTH 240 0
DWIDTH 4 0
BBX 4 19 0 -5
BITMAP
60
90
90
90
90
90
90
90
90
90
90
90
90
90
90
90
90
F0
60
ENDCHAR
STARTCHAR 007D
ENCODING 125
SWIDTH 360 0
DWIDTH 6 0
BBX 8 21 0 -6
BITMAP
78
86
82
81
F1
71
11
11
11
11
11
11
11
11
11
71
81
83
86
FE
78
ENDCHAR
STARTCHAR 007E
ENCODING 126
SWIDTH 420 0
DWIDTH 7 0
BBX 8 7 0 6
BITMAP
76
C9
81
81
93
FF
7E
ENDCHAR
STARTCHAR 00A1
ENCODING 161
SWIDTH 240 0
DWIDTH 4 0
BBX 5 16 0 -3
BITMAP
70
90
88
98
F8
90
88
88
88
88
88
88
88
98
F0
F0
ENDCHAR
STARTCHAR 00A2
ENCODING 162
SWIDTH 360 0
DWIDTH 6 0
BBX 8 16 0 -3
BITMAP
1C
24
3E
41
81
8F
8E
88
8E
C1
E1
7F
63
22
3C
1C
ENDCHAR
STARTCHAR 00A3
ENCODING 163
SWIDTH 600 0
DWIDTH 10 0
BBX 11 16 0 -3
BITMAP
3E00
6100
C100
9F00
8200
8100
81C0
8320
9F20
9F20
9E20
8060
8060
80C0
FFC0
7F00
ENDCHAR
STARTCHAR 00A4
ENCODING 164
SWIDTH 540 0
DWIDTH 9 0
BBX 11 16 0 -3
BITMAP
03C0
0C20
1020
E3E0
80E0
8040
80C0
C7C0
8040
8040
E3C0
F060
3820
1C60
0FE0
03C0
ENDCHAR
STARTCHAR 00A5
ENCODING 165
SWIDTH 540 0
DWIDTH 9 0
BBX 10 17 0 -3
BITMAP
7380
8C40
8C40
8C40
8C40
8C40
C0C0
8040
8040
F3C0
8040
8040
8040
F3C0
7380
1E00
1C00
ENDCHAR
STARTCHAR 00A7
ENCODING 167
SWIDTH 660 0
DWIDTH 11 0
BBX 12 16 0 -3
BITMAP
0780
0880
10E0
1110
1610
1470
1460
1440
E440
8440
8840
90C0
F080
7180
1F00
1E00
ENDCHAR
STARTCHAR 00A8
ENCODING 168
SWIDTH 420 0
DWIDTH 7 0
BBX 8 7 0 12
BITMAP
6E
B3
91
92
B3
FF
6E
ENDCHAR
STARTCHAR 00A9
ENCODING 169
SWIDTH 780 0
DWIDTH 13 0
BBX 14 16 0 -3
BITMAP
0F80
3060
6010
4788
88C8
93E4
93E4
93E4
93E4
88C4
878C
C008
6018
7070
3FE0
0F80
ENDCHAR
STARTCHAR 00AA
ENCODING 170
SWIDTH 1080 0
DWIDTH 18 0
BBX 19 16 0 1
BITMAP
01F800
03FC00
07FE00
0F1F00
0E0F00
1E0780
FE0780
7F0B80
3EDBA0
7913E0
7803E0
7803C0
7CE780
7EEF80
3F1E00
00E000
ENDCHAR
STARTCHAR 00AB
ENCODING 171
SWIDTH 540 0
DWIDTH 9 0
BBX 10 9 0 -1
BITMAP
3B80
6640
C440
88C0
8880
C440
E640
7FC0
3F80
ENDCHAR
STARTCHAR 00AC
ENCODING 172
SWIDTH 1320 0
DWIDTH 22 0
BBX 22 17 0 0
BITMAP
006000
01FE00
03FF80
03EFC0
0783E0
0781E0
1F00F0
FF00F0
3F0470
3EEE70
7CB47C
7C6C7C
FC00FC
3E38F0
3D39E0
00C7C0
003800
ENDCHAR
STARTCHAR 00AE
ENCODING 174
SWIDTH 780 0
DWIDTH 13 0
BBX 14 16 0 -3
BITMAP
0F80
3060
6010
4788
8848
9324
9324
9464
95E4
9444
8F8C
C008
6018
7070
3FE0
0F80
ENDCHAR
STARTCHAR 00AF
ENCODING 175
SWIDTH 540 0
DWIDTH 9 0
BBX 8 6 1 9
BITMAP
7E
81
81
81
FF
7E
ENDCHAR
STARTCHAR 00B0
ENCODING 176
SWIDTH 240 0
DWIDTH 4 0
BBX 7 7 -1 6
BITMAP
3C
66
52
C2
66
7E
3C
ENDCHAR
STARTCHAR 00B1
ENCODING 177
SWIDTH 480 0
DWIDTH 8 0
BBX 9 13 0 -3
BITMAP
1C00
2200
6300
8080
8080
8080
E380
FF00
8080
8080
8080
FF80
7F00
ENDCHAR
STARTCHAR 00B4
ENCODING 180
SWIDTH 300 0
DWIDTH 5 0
BBX 6 9 0 12
BITMAP
38
48
C4
88
8C
88
98
F8
70
ENDCHAR
STARTCHAR 00B5
ENCODING 181
SWIDTH 660 0
DWIDTH 11 0
BBX 13 16 0 -7
BITMAP
E700
9480
9480
9480
9480
9480
9CF0
8018
8008
8308
9FF8
9CF0
9000
9000
F000
6000
ENDCHAR
STARTCHAR 00B6
ENCODING 182
SWIDTH 720 0
DWIDTH 12 0
BBX 13 16 0 -3
BITMAP
3FF0
4008
C008
8048
9048
9048
9048
8048
C048
E048
7048
3048
1048
10C8
0FF8
0770
ENDCHAR
STARTCHAR 00B7
ENCODING 183
SWIDTH 240 0
DWIDTH 4 0
BBX 5 7 0 -3
BITMAP
70
D8
88
88
88
F8
70
ENDCHAR
STARTCHAR 00B8
ENCODING 184
SWIDTH 360 0
DWIDTH 6 0
BBX 5 6 0 -6
BITMAP
18
18
18
38
F0
E0
ENDCHAR
STARTCHAR 00BA
ENCODING 186
SWIDTH 1080 0
DWIDTH 18 0
BBX 19 16 0 1
BITMAP
01F800
03FC00
07FE00
0F1F00
0E0F00
1E0780
FE0780
7F0B80
3EDBA0
7913E0
7803E0
7803C0
7CE780
7EEF80
3F1E00
00E000
ENDCHAR
STARTCHAR 00BB
ENCODING 187
SWIDTH 540 0
DWIDTH 9 0
BBX 10 9 0 -1
BITMAP
7E00
9900
8880
C840
C880
88C0
9980
FF00
7E00
ENDCHAR
STARTCHAR 00BF
ENCODING 191
SWIDTH 600 0
DWIDTH 10 0
BBX 11 16 0 -3
BITMAP
0700
0980
0880
0980
3F80
6080
C080
80C0
9F20
9E20
9C20
8060
C040
61C0
7F80
1F00
ENDCHAR
STARTCHAR 00C0
ENCODING 192
SWIDTH 600 0
DWIDTH 10 0
BBX 13 27 0 -6
BITMAP
1C00
2200
2200
2100
3100
3100
1100
1F00
1F00
2080
4040
8C20
9E20
9A20
9E20
9C20
9020
9020
9220
9E20
9E20
9220
F230
6308
0388
01F8
00F0
ENDCHAR
STARTCHAR 00C1
ENCODING 193
SWIDTH 600 0
DWIDTH 10 0
BBX 13 27 0 -6
BITMAP
0E00
1100
1100
3100
2100
2300
2200
3E00
1F00
2080
4040
8C20
9E20
9A20
9E20
9C20
9020
9020
9220
9E20
9E20
9220
F230
6308
0388
01F8
00F0
ENDCHAR
STARTCHAR 00C2
ENCODING 194
SWIDTH 600 0
DWIDTH 10 0
BBX 13 26 0 -6
BITMAP
0600
0900
1080
2040
2040
2640
3FC0
1F80
2080
4040
8C20
9E20
9A20
9E20
9C20
9020
9020
9220
9E20
9E20
9220
F230
6308
0388
01F8
00F0
ENDCHAR
STARTCHAR 00C3
ENCODING 195
SWIDTH 540 0
DWIDTH 9 0
BBX 13 25 0 -6
BITMAP
1D80
3240
2040
2040
24C0
3FC0
1F80
2080
4040
8C20
9E20
9A20
9E20
9C20
9020
9020
9220
9E20
9E20
9220
F230
6308
0388
01F8
00F0
ENDCHAR
STARTCHAR 00C4
ENCODING 196
SWIDTH 540 0
DWIDTH 9 0
BBX 13 26 0 -6
BITMAP
3F00
4980
4880
4900
4880
7F80
3F00
1F00
2080
4040
8C20
9E20
9A20
9E20
9C20
9020
9020
9220
9E20
9E20
9220
F230
6308
0388
01F8
00F0
ENDCHAR
STARTCHAR 00C5
ENCODING 197
SWIDTH 540 0
DWIDTH 9 0
BBX 13 23 0 -6
BITMAP
1E00
3300
2900
6100
3F00
3F80
5E40
8C20
9E20
9A20
9E20
9C20
9020
9020
9220
9E20
9E20
9220
F230
6308
0388
01F8
00F0
ENDCHAR
STARTCHAR 00C6
ENCODING 198
SWIDTH 840 0
DWIDTH 14 0
BBX 16 16 0 -3
BITMAP
1F1E
61E1
4041
8C1F
9E3F
9E02
9C01
9001
9003
903F
921E
9E01
9E41
9261
F3FF
E3FE
ENDCHAR
STARTCHAR 00C7
ENCODING 199
SWIDTH 480 0
DWIDTH 8 0
BBX 9 19 0 -6
BITMAP
0F00
3080
6080
4780
8F80
9F00
9800
9000
9000
8800
C700
E080
7080
3F80
1380
1300
1300
1F00
0E00
ENDCHAR
STARTCHAR 00C8
ENCODING 200
SWIDTH 480 0
DWIDTH 8 0
BBX 9 24 0 -3
BITMAP
1C00
2200
2200
2100
3100
3100
1100
1F00
0F00
1880
2080
4780
CF80
8080
8080
8080
8080
8F80
C780
C080
6080
3880
1F80
0F00
ENDCHAR
STARTCHAR 00C9
ENCODING 201
SWIDTH 480 0
DWIDTH 8 0
BBX 9 24 0 -3
BITMAP
0E00
1100
1100
3100
2100
2300
2200
3E00
1F00
1880
2080
4780
CF80
8080
8080
8080
8080
8F80
C780
C080
6080
3880
1F80
0F00
ENDCHAR
STARTCHAR 00CA
ENCODING 202
SWIDTH 540 0
DWIDTH 9 0
BBX 10 23 0 -3
BITMAP
0600
0900
1080
2040
2040
2640
3FC0
1F80
1880
2080
4780
CF80
8080
8080
8080
8080
8F80
C780
C080
6080
3880
1F80
0F00
ENDCHAR
STARTCHAR 00CB
ENCODING 203
SWIDTH 480 0
DWIDTH 8 0
BBX 9 23 0 -3
BITMAP
3F00
4980
4880
4900
4880
7F80
3F00
0F00
1880
2080
4780
CF80
8080
8080
8080
8080
8F80
C780
C080
6080
3880
1F80
0F00
ENDCHAR
STARTCHAR 00CC
ENCODING 204
SWIDTH 180 0
DWIDTH 3 0
BBX 6 24 -1 -3
BITMAP
70
88
88
84
C4
C4
44
7C
38
48
48
48
48
48
48
48
48
48
48
48
48
48
78
30
ENDCHAR
STARTCHAR 00CD
ENCODING 205
SWIDTH 180 0
DWIDTH 3 0
BBX 6 24 0 -3
BITMAP
38
44
44
C4
84
8C
88
F8
70
90
90
90
90
90
90
90
90
90
90
90
90
90
F0
60
ENDCHAR
STARTCHAR 00CE
ENCODING 206
SWIDTH 180 0
DWIDTH 3 0
BBX 8 23 -2 -3
BITMAP
18
24
42
81
81
99
FF
7E
24
24
24
24
24
24
24
24
24
24
24
24
24
3C
18
ENDCHAR
STARTCHAR 00CF
ENCODING 207
SWIDTH 180 0
DWIDTH 3 0
BBX 8 23 -2 -3
BITMAP
7E
93
91
92
91
FF
7E
18
24
24
24
24
24
24
24
24
24
24
24
24
24
3C
18
ENDCHAR
STARTCHAR 00D0
ENCODING 208
SWIDTH 1080 0
DWIDTH 18 0
BBX 19 16 0 1
BITMAP
01F800
03FC00
07FE00
0F1F00
0E0F00
1E0780
FE0780
7F0B80
3EDBA0
7913E0
7803E0
7803C0
7CE780
7EEF80
3F1E00
00E000
ENDCHAR
STARTCHAR 00D1
ENCODING 209
SWIDTH 480 0
DWIDTH 8 0
BBX 12 23 0 -6
BITMAP
3B00
6480
4080
4080
7F80
7F80
7F00
9C80
9C80
9480
9480
9480
9480
9480
9480
9480
9480
9480
F4E0
6610
0310
03F0
00E0
ENDCHAR
STARTCHAR 00D2
ENCODING 210
SWIDTH 720 0
DWIDTH 12 0
BBX 14 24 0 -3
BITMAP
0700
0880
0880
0840
0C40
0C40
0440
07C0
0FC0
1860
2010
4788
CFCC
98C4
9064
9024
9044
88C4
C78C
C00C
6018
3870
1FE0
0FC0
ENDCHAR
STARTCHAR 00D3
ENCODING 211
SWIDTH 720 0
DWIDTH 12 0
BBX 14 24 0 -3
BITMAP
01C0
0220
0220
0620
0420
0460
0440
07C0
0FC0
1860
2010
4788
CFCC
98C4
9064
9024
9044
88C4
C78C
C00C
6018
3870
1FE0
0FC0
ENDCHAR
STARTCHAR 00D4
ENCODING 212
SWIDTH 720 0
DWIDTH 12 0
BBX 14 23 0 -3
BITMAP
0300
0480
0840
1020
1020
1320
1FE0
0FC0
1860
2010
4788
CFCC
98C4
9064
9024
9044
88C4
C78C
C00C
6018
3870
1FE0
0FC0
ENDCHAR
STARTCHAR 00D5
ENCODING 213
SWIDTH 720 0
DWIDTH 12 0
BBX 14 22 0 -3
BITMAP
0EC0
1920
1020
1020
1260
1FE0
0FC0
1860
2010
4788
CFCC
98C4
9064
9024
9044
88C4
C78C
C00C
6018
3870
1FE0
0FC0
ENDCHAR
STARTCHAR 00D6
ENCODING 214
SWIDTH 720 0
DWIDTH 12 0
BBX 14 23 0 -3
BITMAP
0FC0
1260
1220
1240
1220
1FE0
0FC0
0FC0
1860
2010
4788
CFCC
98C4
9064
9024
9044
88C4
C78C
C00C
6018
3870
1FE0
0FC0
ENDCHAR
STARTCHAR 00D8
ENCODING 216
SWIDTH 780 0
DWIDTH 13 0
BBX 14 16 0 -3
BITMAP
0FC0
1860
2010
4788
CFCC
98C4
9064
9024
9044
88C4
C78C
C00C
6018
3870
1FE0
0FC0
ENDCHAR
STARTCHAR 00D9
ENCODING 217
SWIDTH 480 0
DWIDTH 8 0
BBX 9 23 0 -3
BITMAP
1C00
2200
2200
2100
3100
3100
1100
7F00
9E80
9480
9480
9480
9480
9480
9480
9480
9480
9C80
8080
C180
6300
7F00
3E00
ENDCHAR
STARTCHAR 00DA
ENCODING 218
SWIDTH 480 0
DWIDTH 8 0
BBX 9 24 0 -3
BITMAP
0E00
1100
1100
3100
2100
2300
2200
3E00
7F00
9480
9480
9480
9480
9480
9480
9480
9480
9480
9C80
8080
C180
6300
7F00
3E00
ENDCHAR
STARTCHAR 00DB
ENCODING 219
SWIDTH 480 0
DWIDTH 8 0
BBX 9 23 0 -3
BITMAP
0C00
1200
2100
4080
4080
4C80
7F80
7F00
9480
9480
9480
9480
9480
9480
9480
9480
9480
9C80
8080
C180
6300
7F00
3E00
ENDCHAR
STARTCHAR 00DC
ENCODING 220
SWIDTH 480 0
DWIDTH 8 0
BBX 9 23 0 -3
BITMAP
3F00
4980
4880
4900
4880
7F80
3F00
6300
9480
9480
9480
9480
9480
9480
9480
9480
9480
9C80
8080
C180
6300
7F00
3E00
ENDCHAR
STARTCHAR 00DD
ENCODING 221
SWIDTH 480 0
DWIDTH 8 0
BBX 7 17 1 0
BITMAP
18
1C
3C
38
18
C6
C6
C6
C6
C6
7E
3E
C6
C6
C6
FC
38
ENDCHAR
STARTCHAR 00DE
ENCODING 222
SWIDTH 1080 0
DWIDTH 18 0
BBX 19 16 0 1
BITMAP
01F800
03FC00
07FE00
0F1F00
0E0F00
1E0780
FE0780
7F0B80
3EDBA0
7913E0
7803E0
7803C0
7CE780
7EEF80
3F1E00
00E000
ENDCHAR
STARTCHAR 00DF
ENCODING 223
SWIDTH 480 0
DWIDTH 8 0
BBX 9 19 0 -6
BITMAP
3C00
4300
8100
8080
9C80
9C80
A080
A080
A080
9C80
9C80
9880
A180
A300
9F00
9C00
9000
F000
6000
ENDCHAR
STARTCHAR 00E0
ENCODING 224
SWIDTH 540 0
DWIDTH 9 0
BBX 10 21 0 -3
BITMAP
1C00
2200
2200
2100
3100
3100
1100
1F00
0E00
1E00
6180
4080
8C40
9E40
9A40
9E40
8640
C240
6240
7FC0
1D80
ENDCHAR
STARTCHAR 00E1
ENCODING 225
SWIDTH 540 0
DWIDTH 9 0
BBX 10 22 0 -3
BITMAP
0E00
1100
1100
3100
2100
2300
2200
3E00
1C00
0000
1E00
6180
4080
8C40
9E40
9A40
9E40
8640
C240
6240
7FC0
1D80
ENDCHAR
STARTCHAR 00E2
ENCODING 226
SWIDTH 540 0
DWIDTH 9 0
BBX 10 19 0 -3
BITMAP
0600
0900
1080
2040
2040
2640
3FC0
1F80
6180
4080
8C40
9E40
9A40
9E40
8640
C240
6240
7FC0
1D80
ENDCHAR
STARTCHAR 00E3
ENCODING 227
SWIDTH 540 0
DWIDTH 9 0
BBX 10 18 0 -3
BITMAP
1D80
3240
2040
2040
24C0
3FC0
1F80
6180
4080
8C40
9E40
9A40
9E40
8640
C240
6240
7FC0
1D80
ENDCHAR
STARTCHAR 00E4
ENCODING 228
SWIDTH 540 0
DWIDTH 9 0
BBX 10 20 0 -3
BITMAP
3F00
4980
4880
4900
4880
7F80
3F00
0000
1E00
6180
4080
8C40
9E40
9A40
9E40
8640
C240
6240
7FC0
1D80
ENDCHAR
STARTCHAR 00E5
ENCODING 229
SWIDTH 540 0
DWIDTH 9 0
BBX 10 19 0 -3
BITMAP
1E00
3300
2900
6100
3300
3F00
1E00
1E00
6180
4080
8C40
9E40
9A40
9E40
8640
C240
6240
7FC0
1D80
ENDCHAR
STARTCHAR 00E6
ENCODING 230
SWIDTH 900 0
DWIDTH 15 0
BBX 16 12 0 -3
BITMAP
1E7C
6186
4001
8C21
9E47
9A4F
9E3E
8602
C302
6382
7EFE
1C7C
ENDCHAR
STARTCHAR 00E7
ENCODING 231
SWIDTH 360 0
DWIDTH 6 0
BBX 8 15 0 -6
BITMAP
1E
61
42
8F
8E
88
8E
C1
E1
7F
67
22
26
3E
1C
ENDCHAR
STARTCHAR 00E8
ENCODING 232
SWIDTH 480 0
DWIDTH 8 0
BBX 10 20 0 -3
BITMAP
1C00
2200
2200
2100
3100
3100
1100
1F00
1F00
2080
4040
8840
90C0
93C0
8F80
8080
C080
6080
3F80
1F00
ENDCHAR
STARTCHAR 00E9
ENCODING 233
SWIDTH 480 0
DWIDTH 8 0
BBX 10 21 0 -3
BITMAP
0E00
1100
1100
3100
2100
2300
2200
3E00
1C00
1F00
2080
4040
8840
90C0
93C0
8F80
8080
C080
6080
3F80
1F00
ENDCHAR
STARTCHAR 00EA
ENCODING 234
SWIDTH 480 0
DWIDTH 8 0
BBX 10 20 0 -3
BITMAP
0600
0900
1080
2040
2040
2640
3FC0
1F80
1F00
2080
4040
8840
90C0
93C0
8F80
8080
C080
6080
3F80
1F00
ENDCHAR
STARTCHAR 00EB
ENCODING 235
SWIDTH 480 0
DWIDTH 8 0
BBX 10 20 0 -3
BITMAP
3F00
4980
4880
4900
4880
7F80
3F00
0000
1F00
2080
4040
8840
90C0
93C0
8F80
8080
C080
6080
3F80
1F00
ENDCHAR
STARTCHAR 00EC
ENCODING 236
SWIDTH 180 0
DWIDTH 3 0
BBX 6 20 -1 -3
BITMAP
70
88
88
84
C4
C4
44
7C
38
48
48
48
48
48
48
48
48
48
78
30
ENDCHAR
STARTCHAR 00ED
ENCODING 237
SWIDTH 180 0
DWIDTH 3 0
BBX 6 21 0 -3
BITMAP
38
44
44
C4
84
8C
88
F8
70
60
90
90
90
90
90
90
90
90
90
F0
60
ENDCHAR
STARTCHAR 00EE
ENCODING 238
SWIDTH 180 0
DWIDTH 3 0
BBX 8 20 -2 -3
BITMAP
18
24
42
81
81
99
FF
7E
18
24
24
24
24
24
24
24
24
24
3C
18
ENDCHAR
STARTCHAR 00EF
ENCODING 239
SWIDTH 180 0
DWIDTH 3 0
BBX 8 20 -2 -3
BITMAP
7E
93
91
92
91
FF
7E
00
18
24
24
24
24
24
24
24
24
24
3C
18
ENDCHAR
STARTCHAR 00F0
ENCODING 240
SWIDTH 1080 0
DWIDTH 18 0
BBX 19 16 0 1
BITMAP
01F800
03FC00
07FE00
0F1F00
0E0F00
1E0780
FE0780
7F0B80
3EDBA0
7913E0
7803E0
7803C0
7CE780
7EEF80
3F1E00
00E000
ENDCHAR
STARTCHAR 00F1
ENCODING 241
SWIDTH 480 0
DWIDTH 8 0
BBX 12 22 0 -6
BITMAP
3B00
6480
4080
4080
4980
7F80
3F00
3E00
6300
C180
9C80
9C80
9480
9480
9480
9480
9480
F4E0
6610
0310
03F0
00E0
ENDCHAR
STARTCHAR 00F2
ENCODING 242
SWIDTH 540 0
DWIDTH 9 0
BBX 11 20 0 -3
BITMAP
1C00
2200
2200
2100
3100
3100
1100
1F00
1F00
2080
4040
8C20
9E20
9E20
8C20
8020
C060
60C0
3F80
1F00
ENDCHAR
STARTCHAR 00F3
ENCODING 243
SWIDTH 540 0
DWIDTH 9 0
BBX 11 21 0 -3
BITMAP
0700
0880
0880
1880
1080
1180
1100
1F00
0E00
1F00
2080
4040
8C20
9E20
9E20
8C20
8020
C060
60C0
3F80
1F00
ENDCHAR
STARTCHAR 00F4
ENCODING 244
SWIDTH 540 0
DWIDTH 9 0
BBX 11 20 0 -3
BITMAP
0600
0900
1080
2040
2040
2640
3FC0
1F80
1F00
2080
4040
8C20
9E20
9E20
8C20
8020
C060
60C0
3F80
1F00
ENDCHAR
STARTCHAR 00F5
ENCODING 245
SWIDTH 540 0
DWIDTH 9 0
BBX 11 19 0 -3
BITMAP
1D80
3240
2040
2040
24C0
3FC0
1F80
1F00
2080
4040
8C20
9E20
9E20
8C20
8020
C060
60C0
3F80
1F00
ENDCHAR
STARTCHAR 00F6
ENCODING 246
SWIDTH 540 0
DWIDTH 9 0
BBX 11 20 0 -3
BITMAP
3F00
4980
4880
4900
4880
7F80
3F00
0000
1F00
2080
4040
8C20
9E20
9E20
8C20
8020
C060
60C0
3F80
1F00
ENDCHAR
STARTCHAR 00F7
ENCODING 247
SWIDTH 1080 0
DWIDTH 18 0
BBX 19 16 0 1
BITMAP
01F800
03FC00
07FE00
0F1F00
0E0F00
1E0780
FE0780
7F0B80
3EDBA0
7913E0
7803E0
7803C0
7CE780
7EEF80
3F1E00
00E000
ENDCHAR
STARTCHAR 00F8
ENCODING 248
SWIDTH 780 0
DWIDTH 13 0
BBX 14 16 0 -3
BITMAP
0FC0
1860
2010
4788
CFCC
98C4
9064
9024
9044
88C4
C78C
C00C
6018
3870
1FE0
0FC0
ENDCHAR
STARTCHAR 00F9
ENCODING 249
SWIDTH 480 0
DWIDTH 8 0
BBX 9 20 0 -3
BITMAP
1C00
2200
2200
2100
3100
3100
1100
1F00
6F00
9480
9480
9480
9480
9480
9C80
8080
C180
E380
7F00
3E00
ENDCHAR
STARTCHAR 00FA
ENCODING 250
SWIDTH 480 0
DWIDTH 8 0
BBX 9 21 0 -3
BITMAP
0E00
1100
1100
3100
2100
2300
2200
3E00
1C00
6300
9480
9480
9480
9480
9480
9C80
8080
C180
E380
7F00
3E00
ENDCHAR
STARTCHAR 00FB
ENCODING 251
SWIDTH 480 0
DWIDTH 8 0
BBX 9 20 0 -3
BITMAP
0C00
1200
2100
4080
4080
4C80
7F80
3F00
6300
9480
9480
9480
9480
9480
9C80
8080
C180
E380
7F00
3E00
ENDCHAR
STARTCHAR 00FC
ENCODING 252
SWIDTH 480 0
DWIDTH 8 0
BBX 9 20 0 -3
BITMAP
3F00
4980
4880
4900
4880
7F80
3F00
0000
6300
9480
9480
9480
9480
9480
9C80
8080
C180
E380
7F00
3E00
ENDCHAR
STARTCHAR 00FE
ENCODING 254
SWIDTH 1080 0
DWIDTH 18 0
BBX 19 16 0 1
BITMAP
01F800
03FC00
07FE00
0F1F00
0E0F00
1E0780
FE0780
7F0B80
3EDBA0
7913E0
7803E0
7803C0
7CE780
7EEF80
3F1E00
00E000
ENDCHAR
STARTCHAR 00FF
ENCODING 255
SWIDTH 540 0
DWIDTH 9 0
BBX 9 23 0 -6
BITMAP
3F00
4980
4880
4900
4880
7F80
3F00
0000
6300
9480
9480
9480
9480
9480
9C80
8080
C080
6080
7C80
2180
2380
3F00
1E00
ENDCHAR
STARTCHAR 0131
ENCODING 305
SWIDTH 180 0
DWIDTH 3 0
BBX 4 12 0 -3
BITMAP
E0
90
90
90
90
90
90
90
90
90
F0
E0
ENDCHAR
STARTCHAR 0141
ENCODING 321
SWIDTH 1080 0
DWIDTH 18 0
BBX 19 16 0 1
BITMAP
01F800
03FC00
07FE00
0F1F00
0E0F00
1E0780
FE0780
7F0B80
3EDBA0
7913E0
7803E0
7803C0
7CE780
7EEF80
3F1E00
00E000
ENDCHAR
STARTCHAR 0142
ENCODING 322
SWIDTH 1080 0
DWIDTH 18 0
BBX 19 16 0 1
BITMAP
01F800
03FC00
07FE00
0F1F00
0E0F00
1E0780
FE0780
7F0B80
3EDBA0
7913E0
7803E0
7803C0
7CE780
7EEF80
3F1E00
00E000
ENDCHAR
STARTCHAR 0152
ENCODING 338
SWIDTH 1020 0
DWIDTH 17 0
BBX 19 16 0 -3
BITMAP
0F83C0
306C20
601820
4783E0
8FC7E0
98C040
906020
906020
904060
88C7E0
8783C0
C011E0
601820
707C20
3FEFE0
0FC3C0
ENDCHAR
STARTCHAR 0153
ENCODING 339
SWIDTH 840 0
DWIDTH 14 0
BBX 16 12 0 -3
BITMAP
1E7C
6186
4001
9C21
9E47
9E4F
9C3E
8002
C002
61C2
7FFE
1E7C
ENDCHAR
STARTCHAR 0160
ENCODING 352
SWIDTH 420 0
DWIDTH 7 0
BBX 9 21 0 -3
BITMAP
3F00
4C80
4080
4080
6180
3F00
1E80
3C80
2180
2380
2300
2200
2200
2200
2200
6200
C200
8600
8E00
FC00
7800
ENDCHAR
STARTCHAR 0161
ENCODING 353
SWIDTH 420 0
DWIDTH 7 0
BBX 9 17 0 -3
BITMAP
3F00
4C80
4080
4080
6180
3F00
1E80
3C80
2180
2380
2300
6200
C200
8400
8C00
F800
7000
ENDCHAR
STARTCHAR 0178
ENCODING 376
SWIDTH 540 0
DWIDTH 9 0
BBX 9 23 0 -3
BITMAP
3F00
4980
4880
4900
4880
7F80
3F00
6300
9480
9480
9480
9480
9C80
8080
C080
A080
9C80
9C80
8080
C180
6300
7F00
3E00
ENDCHAR
STARTCHAR 017D
ENCODING 381
SWIDTH 480 0
DWIDTH 8 0
BBX 10 21 0 -3
BITMAP
3F00
4C80
4080
4080
6180
3F80
5E40
4C40
7CC0
78C0
39C0
1180
3380
2300
4600
4780
8040
8040
8040
FFC0
7F80
ENDCHAR
STARTCHAR 017E
ENCODING 382
SWIDTH 420 0
DWIDTH 7 0
BBX 10 17 0 -3
BITMAP
3F00
4C80
4080
4080
6180
3F80
5E40
4C40
78C0
71C0
2380
4700
C080
8080
8080
FF80
7F00
ENDCHAR
STARTCHAR 0192
ENCODING 402
SWIDTH 480 0
DWIDTH 8 0
BBX 10 19 -1 -6
BITMAP
0780
08C0
1080
13C0
1380
1200
1300
7380
4100
4180
7300
7300
1200
E200
8600
8400
8C00
F800
F000
ENDCHAR
STARTCHAR 02C6
ENCODING 710
SWIDTH 360 0
DWIDTH 6 0
BBX 8 8 0 9
BITMAP
18
64
C2
83
81
99
FF
7E
ENDCHAR
STARTCHAR 02C7
ENCODING 711
SWIDTH 360 0
DWIDTH 6 0
BBX 8 8 0 9
BITMAP
6E
99
81
83
C3
E6
7C
18
ENDCHAR
STARTCHAR 02C9
ENCODING 713
SWIDTH 540 0
DWIDTH 9 0
BBX 8 6 1 9
BITMAP
7E
81
81
81
FF
7E
ENDCHAR
STARTCHAR 02D8
ENCODING 728
SWIDTH 420 0
DWIDTH 7 0
BBX 7 7 0 9
BITMAP
7E
5A
82
C2
66
7E
3C
ENDCHAR
STARTCHAR 02D9
ENCODING 729
SWIDTH 420 0
DWIDTH 7 0
BBX 5 7 2 9
BITMAP
70
90
88
88
98
F0
70
ENDCHAR
STARTCHAR 02DA
ENCODING 730
SWIDTH 240 0
DWIDTH 4 0
BBX 7 7 -1 9
BITMAP
3C
46
52
C2
46
7E
3C
ENDCHAR
STARTCHAR 02DB
ENCODING 731
SWIDTH 480 0
DWIDTH 8 0
BBX 5 6 3 -6
BITMAP
C0
C0
C0
C0
F8
78
ENDCHAR
STARTCHAR 02DC
ENCODING 732
SWIDTH 360 0
DWIDTH 6 0
BBX 8 6 0 9
BITMAP
7E
83
81
93
FE
7C
ENDCHAR
STARTCHAR 02DD
ENCODING 733
SWIDTH 900 0
DWIDTH 15 0
BBX 15 13 1 0
BITMAP
FFFE
EED6
FBAA
ED6A
BFFE
FDFE
8D66
ADDA
BD5A
DA6A
EFDE
ECEA
FFFC
ENDCHAR
STARTCHAR 0394
ENCODING 916
SWIDTH 1080 0
DWIDTH 18 0
BBX 19 16 0 1
BITMAP
01F800
03FC00
07FE00
0F1F00
0E0F00
1E0780
FE0780
7F0B80
3EDBA0
7913E0
7803E0
7803C0
7CE780
7EEF80
3F1E00
00E000
ENDCHAR
STARTCHAR 03A9
ENCODING 937
SWIDTH 1080 0
DWIDTH 18 0
BBX 19 16 0 1
BITMAP
01F800
03FC00
07FE00
0F1F00
0E0F00
1E0780
FE0780
7F0B80
3EDBA0
7913E0
7803E0
7803C0
7CE780
7EEF80
3F1E00
00E000
ENDCHAR
STARTCHAR 03BC
ENCODING 956
SWIDTH 660 0
DWIDTH 11 0
BBX 13 16 0 -7
BITMAP
E700
9480
9480
9480
9480
9480
9CF0
8018
8008
8308
9FF8
9CF0
9000
9000
F000
6000
ENDCHAR
STARTCHAR 03C0
ENCODING 960
SWIDTH 540 0
DWIDTH 9 0
BBX 10 12 0 -3
BITMAP
7F80
8040
8040
E440
E440
6440
2440
2440
2440
2440
3FC0
1B80
ENDCHAR
STARTCHAR 2010
ENCODING 8208
SWIDTH 240 0
DWIDTH 4 0
BBX 5 7 0 1
BITMAP
70
D8
88
88
D8
F8
70
ENDCHAR
STARTCHAR 2013
ENCODING 8211
SWIDTH 420 0
DWIDTH 7 0
BBX 8 6 0 0
BITMAP
FE
81
81
81
FF
7E
ENDCHAR
STARTCHAR 2014
ENCODING 8212
SWIDTH 600 0
DWIDTH 10 0
BBX 12 6 0 0
BITMAP
7FE0
8030
8010
8030
FFF0
7FE0
ENDCHAR
STARTCHAR 2018
ENCODING 8216
SWIDTH 240 0
DWIDTH 4 0
BBX 5 9 0 4
BITMAP
70
88
88
88
88
88
88
F8
70
ENDCHAR
STARTCHAR 2019
ENCODING 8217
SWIDTH 240 0
DWIDTH 4 0
BBX 5 9 0 4
BITMAP
70
88
88
88
88
88
88
F8
70
ENDCHAR
STARTCHAR 201A
ENCODING 8218
SWIDTH 240 0
DWIDTH 4 0
BBX 5 9 0 -5
BITMAP
70
88
88
88
88
88
88
F8
70
ENDCHAR
STARTCHAR 201C
ENCODING 8220
SWIDTH 420 0
DWIDTH 7 0
BBX 8 9 0 4
BITMAP
7E
89
89
89
89
89
89
FF
7E
ENDCHAR
STARTCHAR 201D
ENCODING 8221
SWIDTH 420 0
DWIDTH 7 0
BBX 8 9 0 4
BITMAP
7E
89
89
89
89
89
89
FF
7E
ENDCHAR
STARTCHAR 201E
ENCODING 8222
SWIDTH 540 0
DWIDTH 9 0
BBX 9 9 0 -5
BITMAP
7700
8880
8880
8880
8880
8880
8880
FF80
7700
ENDCHAR
STARTCHAR 2020
ENCODING 8224
SWIDTH 1140 0
DWIDTH 19 0
BBX 19 16 1 1
BITMAP
03F000
07FC00
0FFE00
0F3E00
0E0F00
1E0F00
FC0780
7E1780
3E8B00
F913E0
F803C0
7807C0
FCC780
7ECF00
3F1E00
01E000
ENDCHAR
STARTCHAR 2021
ENCODING 8225
SWIDTH 1080 0
DWIDTH 18 0
BBX 19 16 0 1
BITMAP
01F800
03FC00
07FE00
0F1F00
0E0F00
1E0780
FE0780
7F0B80
3EDBA0
7913E0
7803E0
7803C0
7CE780
7EEF80
3F1E00
00E000
ENDCHAR
STARTCHAR 2022
ENCODING 8226
SWIDTH 360 0
DWIDTH 6 0
BBX 7 8 0 1
BITMAP
78
C4
82
82
82
C6
FC
78
ENDCHAR
STARTCHAR 2026
ENCODING 8230
SWIDTH 720 0
DWIDTH 12 0
BBX 13 7 0 -3
BITMAP
6670
9990
8888
8890
9998
FFF0
6670
ENDCHAR
STARTCHAR 2030
ENCODING 8240
SWIDTH 780 0
DWIDTH 13 0
BBX 14 19 0 -5
BITMAP
01C0
7B20
CE60
A660
A660
84C0
CCC0
F8C0
79E0
0930
1250
1258
120C
2714
2794
2784
2CCC
3CF8
1870
ENDCHAR
STARTCHAR 2039
ENCODING 8249
SWIDTH 360 0
DWIDTH 6 0
BBX 6 9 0 -1
BITMAP
38
64
C4
8C
8C
C4
E4
7C
38
ENDCHAR
STARTCHAR 203A
ENCODING 8250
SWIDTH 300 0
DWIDTH 5 0
BBX 6 9 0 -1
BITMAP
70
98
8C
C4
C4
8C
9C
F8
70
ENDCHAR
STARTCHAR 2044
ENCODING 8260
SWIDTH 420 0
DWIDTH 7 0
BBX 9 19 0 -5
BITMAP
0700
0480
0980
0980
0980
1300
1300
3300
2600
2600
4600
4C00
4C00
9C00
9800
9800
9800
F000
7000
ENDCHAR
STARTCHAR 2122
ENCODING 8482
SWIDTH 660 0
DWIDTH 11 0
BBX 12 9 0 4
BITMAP
E000
BFE0
9020
B010
B290
8290
8690
FFF0
7FE0
ENDCHAR
STARTCHAR 2126
ENCODING 8486
SWIDTH 1080 0
DWIDTH 18 0
BBX 19 16 0 1
BITMAP
01F800
03FC00
07FE00
0F1F00
0E0F00
1E0780
FE0780
7F0B80
3EDBA0
7913E0
7803E0
7803C0
7CE780
7EEF80
3F1E00
00E000
ENDCHAR
STARTCHAR 2202
ENCODING 8706
SWIDTH 1080 0
DWIDTH 18 0
BBX 19 16 0 1
BITMAP
01F800
03FC00
07FE00
0F1F00
0E0F00
1E0780
FE0780
7F0B80
3EDBA0
7913E0
7803E0
7803C0
7CE780
7EEF80
3F1E00
00E000
ENDCHAR
STARTCHAR 2206
ENCODING 8710
SWIDTH 1080 0
DWIDTH 18 0
BBX 19 16 0 1
BITMAP
01F800
03FC00
07FE00
0F1F00
0E0F00
1E0780
FE0780
7F0B80
3EDBA0
7913E0
7803E0
7803C0
7CE780
7EEF80
3F1E00
00E000
ENDCHAR
STARTCHAR 220F
ENCODING 8719
SWIDTH 540 0
DWIDTH 9 0
BBX 10 16 0 -3
BITMAP
7F80
8040
8040
E440
E440
E440
2440
2440
2440
2440
2440
2440
2440
2440
3FC0
1B80
ENDCHAR
STARTCHAR 2211
ENCODING 8721
SWIDTH 1080 0
DWIDTH 18 0
BBX 19 16 0 1
BITMAP
01F800
03FC00
07FE00
0F1F00
0E0F00
1E0780
FE0780
7F0B80
3EDBA0
7913E0
7803E0
7803C0
7CE780
7EEF80
3F1E00
00E000
ENDCHAR
STARTCHAR 2219
ENCODING 8729
SWIDTH 240 0
DWIDTH 4 0
BBX 5 7 0 -3
BITMAP
70
D8
88
88
88
F8
70
ENDCHAR
STARTCHAR 221A
ENCODING 8730
SWIDTH 1080 0
DWIDTH 18 0
BBX 19 16 0 1
BITMAP
01F800
03FC00
07FE00
0F1F00
0E0F00
1E0780
FE0780
7F0B80
3EDBA0
7913E0
7803E0
7803C0
7CE780
7EEF80
3F1E00
00E000
ENDCHAR
STARTCHAR 221E
ENCODING 8734
SWIDTH 900 0
DWIDTH 15 0
BBX 14 13 1 0
BITMAP
4000
7FAC
76D4
5228
8200
0600
769C
9674
9654
759C
0000
0450
F354
ENDCHAR
STARTCHAR 222B
ENCODING 8747
SWIDTH 420 0
DWIDTH 7 0
BBX 11 19 -2 -6
BITMAP
03C0
0C20
0820
11E0
11C0
1100
1100
1100
1100
1100
1100
1100
1100
7100
8100
8300
8600
FE00
7800
ENDCHAR
STARTCHAR 2248
ENCODING 8776
SWIDTH 600 0
DWIDTH 10 0
BBX 11 20 0 -11
BITMAP
1F00
6080
4040
9C20
9E20
9A20
8E20
C220
E220
7E20
6060
CFE0
9FC0
9F80
9FC0
8020
8020
E020
7FE0
3FC0
ENDCHAR
STARTCHAR 2260
ENCODING 8800
SWIDTH 1080 0
DWIDTH 18 0
BBX 19 16 0 1
BITMAP
01F800
03FC00
07FE00
0F1F00
0E0F00
1E0780
FE0780
7F0B80
3EDBA0
7913E0
7803E0
7803C0
7CE780
7EEF80
3F1E00
00E000
ENDCHAR
STARTCHAR 2264
ENCODING 8804
SWIDTH 360 0
DWIDTH 6 0
BBX 7 12 0 -3
BITMAP
1C
32
62
4E
44
72
7C
82
82
82
FE
7C
ENDCHAR
STARTCHAR 2265
ENCODING 8805
SWIDTH 360 0
DWIDTH 6 0
BBX 7 12 0 -3
BITMAP
30
48
44
62
44
4E
FC
82
82
82
FE
7C
ENDCHAR
STARTCHAR 22F2
ENCODING 8946
SWIDTH 600 0
DWIDTH 10 0
BBX 11 20 0 -11
BITMAP
1F00
6080
4040
9C20
9E20
9A20
8E20
C220
E220
7E20
6060
CFE0
9FC0
9F80
9FC0
8020
8020
E020
7FE0
3FC0
ENDCHAR
STARTCHAR 25CA
ENCODING 9674
SWIDTH 1080 0
DWIDTH 18 0
BBX 19 16 0 1
BITMAP
01F800
03FC00
07FE00
0F1F00
0E0F00
1E0780
FE0780
7F0B80
3EDBA0
7913E0
7803E0
7803C0
7CE780
7EEF80
3F1E00
00E000
ENDCHAR
STARTCHAR F001
ENCODING 61441
SWIDTH 720 0
DWIDTH 12 0
BBX 14 16 0 -3
BITMAP
1E38
6144
40C4
9CC4
9CFC
9CC4
9FC4
80C4
80C4
80C4
9FC4
9F44
9044
9044
F07C
6038
ENDCHAR
STARTCHAR F002
ENCODING 61442
SWIDTH 720 0
DWIDTH 12 0
BBX 12 16 0 -3
BITMAP
1E60
6190
4090
9C90
9C90
9C90
9F90
8090
8090
8090
9F90
9F90
9090
9090
F0F0
6060
ENDCHAR
ENDFONT
